<svg width="216" height="170" viewBox="0 0 216 170" fill="none" xmlns="http://www.w3.org/2000/svg">
<path d="M102.364 49.781C102.168 49.6507 101.842 49.4552 101.517 49.1294C100.93 48.6733 100.604 48.2172 100.409 48.0869C100.018 47.6308 99.3665 47.0443 98.1936 46.3927C104.709 55.8407 106.534 64.0507 103.537 66.7873C103.015 67.3086 101.061 68.7421 95.6525 67.1131C96.4995 65.6144 97.6724 63.2036 98.0633 60.0108C98.7149 55.0588 97.3466 51.1493 96.5647 49.39C95.7828 55.2543 94.8054 59.8154 93.9583 62.943C93.3719 65.2235 92.5248 66.2009 91.8081 66.9176C90.0488 68.6769 53.2995 60.7276 18.7656 23.9131C10.1647 14.5955 5.08235 5.01719 0 0C48.2172 47.5004 79.1674 67.504 88.876 60.4018C91.8733 58.1864 92.981 53.3647 92.1339 45.8715C88.5502 49.1945 81.4479 52.6479 78.4507 52.9737C64.4416 53.6253 66.3964 45.676 87.638 43.2651C97.542 44.3728 90.6353 37.0099 89.2669 32.1882C86.7258 25.8027 87.1167 26.8452 82.295 22.4145C68.0253 11.0769 93.1113 19.2217 96.1086 41.3104C96.7601 40.8543 97.6724 40.1375 98.9104 39.4208C100.735 38.3131 100.995 38.4434 101.061 38.5086C101.517 38.8995 101.061 40.724 99.8877 41.8317C98.7149 42.8742 97.2814 42.8742 96.8253 42.8742C97.933 43.0045 99.4968 43.3303 101.061 44.438C101.908 45.0244 102.755 45.676 103.015 46.8489C103.276 48.3475 102.624 49.4552 102.364 49.781Z" fill="white"/>
<path d="M79.1024 38.7692C76.6264 36.4887 77.278 34.143 75.5187 31.6018C72.6517 27.562 67.4391 25.933 62.6173 24.9556C41.3757 20.59 20.7857 23.1964 0.391113 29.5819C13.3576 25.5421 25.8029 20.5249 39.1603 17.5276C52.5178 14.4652 66.1359 12.5104 79.8192 11.5982C98.9757 10.295 118.654 10.6208 137.81 13.4878C155.794 16.1593 177.882 19.8081 191.631 32.7095C213.98 53.7556 215.674 89.0063 204.728 116.112C198.798 130.838 189.155 144 177.557 154.881C195.41 137.94 206.552 114.092 208.181 89.5276C209.093 75.8443 207.008 61.7701 200.688 49.6507C187.33 23.9783 160.225 16.5502 133.444 13.8787C129.405 13.4878 125.3 13.0317 121.195 12.771C117.481 12.5104 113.441 14.1394 109.987 13.8136C123.736 15.0516 137.615 17.3321 150.125 23.1312C170.585 32.6443 185.767 51.1493 195.736 71.3484C205.64 91.6126 210.853 113.766 216 135.79C211.439 113.245 204.793 90.4398 193.586 70.2407C182.313 49.9113 165.698 31.9276 144.391 22.5448C124.713 13.9439 102.559 13.162 81.0572 13.8787C78.9721 13.9439 76.3658 14.4 75.8445 16.4199C75.3884 18.2443 76.9522 19.8733 78.3857 21.0461C83.4029 25.4769 88.2897 31.0154 88.5504 37.7267C88.6155 39.1602 88.5504 40.0072 88.0291 40.5937C86.335 42.2878 81.7739 41.2452 79.1024 38.7692Z" fill="white"/>
<path d="M96.1084 38.8344C94.9356 37.466 95.5872 35.7068 95.1311 32.4489C95.1311 32.4489 95.0007 31.7321 94.675 30.1032C93.3066 24.0434 87.3121 21.0461 88.094 19.0914C88.7455 17.4624 93.8279 16.7457 96.6297 19.0262C98.0632 20.1991 97.4116 20.9158 98.7148 31.4715C98.7148 31.4715 98.9102 32.8398 97.6722 38.9647C97.6722 39.095 97.5419 39.486 97.3464 39.5511C96.8252 39.6814 96.1736 38.9647 96.1084 38.8344Z" fill="white"/>
<path d="M116.177 37.3357C118.328 39.0298 123.801 43.7212 124.909 51.0841C125.169 52.8434 125.495 55.4497 124.127 58.2516C121.52 63.4642 115.135 64.4416 114.288 64.5719C116.112 60.8579 117.155 57.6 117.806 55.3194C118.653 52.1918 118.719 50.628 118.588 49.2597C118.523 48.7384 118.002 43.2651 115.396 42.7439C115.07 42.6787 113.897 42.5484 112.203 44.2425C112.463 44.9593 112.854 46.0018 113.18 47.3701C113.506 48.6733 117.025 62.0959 111.747 65.419C110.965 65.9402 109.466 66.5267 106.73 65.9402C107.186 60.5321 107.12 54.0814 105.752 47.0443C105.426 45.4154 105.101 43.9167 104.71 42.4832C103.993 42.4181 103.602 42.2878 103.602 42.0923C103.341 41.3104 107.577 39.7466 116.177 37.3357Z" fill="white"/>
<path d="M101.843 34.7946C101.777 30.6244 102.168 29.8425 102.69 29.3212C103.928 28.0832 105.882 28.1484 106.729 28.2136C107.12 29.5819 107.446 31.3412 107.316 33.3611C107.251 34.4036 107.12 36.0326 106.208 37.857C105.557 39.2253 103.928 41.7013 102.82 41.4407C101.973 41.1801 101.973 39.0298 101.843 34.7946Z" fill="white"/>
<path d="M118.718 34.9249C118.588 34.99 116.764 36.619 114.483 35.9023C112.659 35.3158 111.421 33.6217 111.356 31.6018C111.877 27.562 110.118 24.5647 108.163 24.2389C106.86 24.0434 105.687 24.9557 105.1 25.5421C103.015 28.3439 101.712 28.0833 101.452 28.0833C99.8226 27.6923 98.8452 24.1086 99.2361 19.0262C101.647 19.2869 105.166 19.6778 109.336 20.1991C112.594 20.59 113.375 20.7855 114.223 21.1765C118.328 23.3267 118.849 30.3638 118.718 34.9249Z" fill="white"/>
<path d="M128.688 63.5946C122.693 67.6344 119.37 69.3285 118.784 68.6769C118.002 67.7647 121.781 62.8778 130.186 53.9511C130.186 53.9511 129.535 50.8235 128.297 44.5032C127.254 43.7864 126.212 43.0697 125.169 42.3529C120.413 40.0072 129.73 40.8543 131.099 41.0498L131.359 37.1403C121.976 39.7466 119.435 39.6814 118.849 39.095C118.132 38.3783 120.673 36.9448 123.996 32.514C127.971 27.2362 127.189 25.5421 126.472 24.695C125.821 23.9783 124.843 23.5222 124.192 23.3267C126.537 23.457 128.362 23.848 129.6 24.1737C131.555 24.695 133.053 25.2814 135.203 26.1285C136.507 26.6498 137.549 27.1059 138.266 27.4317C138.787 27.562 139.243 27.7575 139.504 27.9529C141.915 29.3864 141.068 32.1882 141.003 32.4489C141.394 37.4009 135.92 31.6018 135.008 29.7122C133.444 31.7973 131.555 33.6869 129.404 35.2507C130.512 35.7068 141.003 35.1855 140.481 36.8796C140.546 38.3783 136.181 37.2054 135.073 37.3357C134.617 41.1149 133.965 41.5059 140.09 41.6362C141.003 41.962 141.459 42.3529 141.459 42.7439C141.524 43.5258 139.699 44.438 135.985 45.4805C133.053 50.9538 133.249 52.8434 133.965 53.5602C135.269 54.8633 138.983 52.7783 139.765 53.886C140.286 54.6027 139.178 56.2317 138.396 57.3393C137.614 58.2516 136.637 59.2289 135.334 60.2063C132.793 62.2262 130.382 63.1384 128.688 63.5946Z" fill="white"/>
<path d="M125.43 50.6932C125.365 48.9339 125.039 47.0443 124.648 45.0896C128.036 40.9194 131.229 56.6878 125.43 50.6932Z" fill="white"/>
<path d="M139.504 44.9592C142.371 46.0018 138.266 52.0615 136.051 51.9963C135.334 50.5629 136.572 44.8941 139.504 44.9592Z" fill="white"/>
<path d="M141.98 67.9602C141.85 68.6117 140.872 72.9122 136.767 75.3231C132.858 77.6036 129.014 76.6914 128.297 76.5611C128.166 75.6488 127.906 72.4561 129.991 70.4362C130.447 70.0452 131.229 69.3936 134.031 68.7421C135.855 68.286 138.592 67.8298 141.98 67.9602Z" fill="white"/>
<path d="M148.235 40.5285C145.955 41.8968 143.413 42.0923 142.045 40.9194C139.374 38.704 142.11 32.123 143.674 32.123C144.261 32.123 145.042 33.0353 145.955 36.4235C146.411 37.0751 147.779 38.8995 148.3 38.704C148.887 38.4434 147.975 35.5113 147.779 34.9249C148.105 34.6642 149.082 33.9475 149.994 34.2081C151.232 34.5339 152.275 36.619 151.623 39.2253C152.014 38.3131 152.861 37.7267 153.708 37.7267C155.207 37.7267 156.184 39.4859 155.859 40.333C155.533 41.1149 153.774 41.4407 151.493 40.7891C149.278 44.3077 159.247 42.6135 154.621 44.7638C151.949 44.1773 152.796 45.676 152.601 46.7837C153.383 46.5882 155.924 46.0018 156.25 46.6534C156.38 46.9792 155.663 47.7611 154.23 49.1945C153.513 49.9764 152.992 50.3674 152.536 50.6932C152.014 51.0841 151.558 51.3448 150.972 51.4751C150.581 51.6054 149.082 51.9963 148.105 51.1493C147.388 50.5629 147.193 49.4552 147.388 48.6733C147.779 46.6534 150.451 45.9366 150.19 45.0896C150.06 44.6986 149.408 44.3728 147.844 44.1773C147.844 44.5031 147.909 47.8914 145.433 49.4552C143.935 50.3674 141.524 50.628 140.872 49.6506C140.742 49.4552 140.612 49.1294 140.742 48.543C141.133 47.8914 141.654 47.1746 142.371 46.3927C143.088 45.6108 143.544 45.285 143.544 44.8289C143.544 44.438 143.348 43.7864 141.915 43.0045C143.153 40.724 149.473 44.8289 148.235 40.5285Z" fill="white"/>
<path d="M160.811 62.2914C165.176 63.9855 157.488 71.9348 157.618 73.6289C156.901 76.952 140.547 65.9403 138.461 65.6145C134.226 63.9203 141.785 55.971 141.654 54.3421C142.371 50.9538 158.791 61.9656 160.811 62.2914Z" fill="white"/>
<path d="M156.51 48.4778C156.38 47.7611 155.729 42.809 157.162 42.2878C158.074 41.962 159.443 43.4606 160.029 44.2425C161.202 45.8715 161.267 47.6307 161.267 48.3475C161.267 48.3475 162.505 49.4552 163.091 49.1945C163.287 49.1294 163.482 48.8036 163.482 48.0217C163.938 47.5004 164.655 47.2398 165.242 47.3701C166.089 47.5656 166.74 48.6733 166.48 49.8461C166.349 49.9113 166.219 50.1068 166.219 50.2371C166.284 50.6932 167.718 50.5629 168.434 51.2796C168.825 51.6054 169.151 52.3221 168.891 53.8859C167.848 53.6253 167.066 53.2344 166.545 52.9737C165.958 52.5828 165.567 52.257 165.242 52.3873C164.786 52.5176 164.59 53.3647 164.525 54.0163C165.111 53.8859 168.109 53.3647 169.672 55.124C169.738 55.1891 170.845 56.4271 170.389 57.1439C170.063 57.6651 169.086 57.7954 168.043 57.3393C164.786 55.5801 164.59 55.8407 163.808 58.1212C163.482 58.7728 163.743 58.9683 164.981 59.5547C165.307 59.8154 165.567 59.9457 165.763 59.8805C166.545 59.7502 166.74 58.2516 167.457 58.1212C167.783 58.0561 168.304 58.3167 169.021 59.685C168.891 59.8154 168.63 60.076 168.369 60.3366C167.196 61.4443 166.61 61.9656 165.958 62.2914C165.567 62.4868 164.525 62.8126 162.896 62.2262C160.681 61.7701 159.117 60.7927 159.117 59.8154C159.117 59.2941 159.573 58.7077 159.834 58.3819C160.615 57.4697 161.202 57.5348 161.658 56.7529C161.723 56.5574 162.179 55.8407 161.853 55.0588C161.658 54.5375 161.202 54.2769 161.006 54.1466C159.768 56.6226 158.139 58.1864 156.836 58.5773C155.859 58.838 155.012 58.6425 155.012 58.6425C154.751 58.5773 154.36 58.447 153.774 58.1212C152.405 57.2742 151.493 55.9059 151.102 55.1891C152.08 55.1891 153.448 54.733 155.142 54.5375C156.576 54.4072 157.879 54.0814 158.335 52.8434C157.488 52.4525 155.663 51.866 156.185 50.9538C158.205 49.39 161.919 54.9285 162.375 50.5629C160.615 48.6081 154.751 51.019 156.51 48.4778Z" fill="white"/>
<path d="M143.348 84.7059C141.459 82.4905 141.198 80.7964 141.328 79.6235C141.459 78.5158 141.915 77.9946 142.501 76.4308C143.283 74.476 143.544 72.7167 143.739 71.4787C144.391 71.8697 146.737 73.4335 147.518 76.4308C147.714 77.0824 148.105 78.7113 147.388 80.6661C146.346 83.4027 143.804 84.5104 143.348 84.7059Z" fill="white"/>
<path d="M150.451 100.865C150.125 101.126 149.604 101.452 148.887 101.517C148.3 101.582 147.714 101.452 146.15 100.604C144.521 99.6923 143.739 99.3013 143.153 98.6497C142.632 98.1285 141.85 97.2162 141.328 95.7176C140.937 94.0235 141.654 92.3294 142.892 91.5475C144.521 90.5701 146.997 91.1565 148.17 93.1113L152.861 87.4425C152.014 86.7257 151.363 85.8787 150.646 87.3122C150.32 87.638 150.06 87.7683 149.864 87.7683C149.017 87.9638 147.909 87.3122 147.258 86.1393C147.127 85.6832 147.062 85.0316 147.258 84.3801C147.649 83.2724 148.691 83.0117 149.864 82.0344C151.558 80.666 151.298 79.7538 152.731 78.3203C153.513 77.5384 154.816 76.6262 157.032 76.0398C157.292 75.6488 157.618 75.5185 157.813 75.4534C158.921 75.1276 160.289 76.8217 161.137 77.4081C161.658 76.1701 162.505 74.1502 163.547 71.6742C165.437 67.2434 169.542 57.7954 171.236 58.2516C171.432 58.3167 171.757 58.5122 172.344 58.9683C172.865 59.3592 173.256 59.685 173.517 59.9457C177.752 64.1158 177.231 66.657 177.035 67.3086C176.579 69.0027 173.582 71.0877 167.522 75.1927C167.522 75.1927 167.457 75.2579 167.392 75.323C166.545 75.9095 163.287 78.19 163.547 79.2977C163.678 80.0144 164.264 80.4054 165.046 80.7312C167.522 81.6434 157.944 93.1113 156.641 90.7656C154.23 86.9864 152.08 93.0461 150.32 94.3493C152.927 94.9357 154.686 96.304 154.621 97.542C154.621 98.3891 153.774 99.0407 153.187 99.562C152.275 100.344 151.102 100.67 150.451 100.865Z" fill="white"/>
<path d="M166.936 99.6923C166.219 99.171 164.655 98.1936 162.766 98.4543C159.833 98.8452 157.292 102.103 157.227 106.469C155.207 106.338 152.666 105.947 152.014 104.384C150.842 101.517 157.097 96.7601 161.528 92.5248C166.545 87.7683 173.061 80.0796 178.404 67.504C179.316 68.6117 181.727 72 181.531 76.6262C181.466 78.7764 180.814 80.3402 180.489 81.1221C179.902 82.5556 177.882 87.1819 174.559 87.5076C173.452 87.638 172.083 86.9864 170.454 85.0968L167.913 88.6153C170.65 87.5076 173.191 89.0063 173.582 90.7004C173.908 92.199 172.604 94.3493 170.194 94.9357C170.389 92.2642 168.499 90.4398 166.936 90.5701C165.763 90.6352 164.655 91.8733 164.264 93.5022C167.327 94.0235 169.086 96.1085 168.825 97.6723C168.695 98.78 167.327 99.4968 166.936 99.6923Z" fill="white"/>
<path d="M172.279 132.141C171.366 133.379 170.389 134.747 169.281 136.181C166.545 139.699 162.309 144.977 156.51 150.972C147.388 160.355 135.92 170.063 135.334 169.477C134.943 169.086 139.113 164.981 149.994 152.21C162.114 138.005 165.241 133.575 167.652 127.841C170.194 121.716 171.301 116.242 171.822 112.398C170.324 113.636 165.437 117.415 160.68 116.373C159.899 116.177 158.53 115.852 157.944 114.744C157.227 113.441 157.813 111.486 159.377 109.727C167.978 111.421 170.389 110.443 171.041 109.271C171.236 108.88 171.106 107.576 170.91 104.905C170.65 101.582 170.389 100.474 171.106 99.5619C171.692 98.8452 172.67 98.5846 173.582 98.4543C178.794 99.6271 180.358 101.386 180.749 102.82C181.336 105.166 178.794 106.599 177.817 111.03C176.97 114.809 178.403 116.308 178.338 119.826C178.273 122.628 177.231 126.863 172.279 132.141Z" fill="white"/>
<path d="M180.293 95.0009C182.378 91.4172 182.509 90.1791 182.053 89.7882C181.662 89.3972 180.684 90.0488 178.925 89.723C178.208 89.5927 177.622 89.3972 177.231 89.2018C179.251 84.9013 181.727 80.4054 183.095 80.7963C183.616 80.9267 183.877 81.7086 184.268 86.2696C184.985 94.6099 185.245 98.7801 183.486 99.562C183.03 99.7574 181.922 99.3665 179.772 98.5194C177.296 97.542 173.973 96.304 174.168 95.457C174.234 95.1312 174.755 95.0009 175.537 94.8054C176.384 94.6099 178.078 94.3493 180.293 95.0009Z" fill="white"/>
<path d="M66.4616 38.1828C68.8007 38.1828 70.6969 36.2866 70.6969 33.9475C70.6969 31.6084 68.8007 29.7122 66.4616 29.7122C64.1225 29.7122 62.2263 31.6084 62.2263 33.9475C62.2263 36.2866 64.1225 38.1828 66.4616 38.1828Z" fill="white"/>
<path d="M151.819 68.7421C151.428 67.9602 150.646 67.5692 150.255 67.0479C149.734 66.3312 149.408 65.8751 148.756 65.6144C148.17 65.3538 147.584 65.2887 146.671 65.4841C146.085 65.6145 145.303 65.5493 144.456 65.8751C144.326 65.9402 144.13 65.5493 144.261 65.4841C145.042 65.0932 145.955 65.2235 146.476 64.8326C147.193 64.3113 147.649 63.5945 147.844 63.0081C148.105 62.4217 147.844 61.705 147.649 60.7927C147.518 60.2063 147.649 59.4244 147.323 58.5774C147.258 58.447 147.584 58.2516 147.649 58.3819C148.04 59.1638 148.04 60.0108 148.431 60.5321C148.952 61.2488 149.538 61.9004 150.125 62.1611C150.711 62.4217 151.558 62.4217 152.47 62.2914C153.057 62.1611 153.774 61.8353 154.621 61.5746C154.751 61.5095 154.816 61.5095 154.621 61.6398C153.839 62.0307 153.318 62.552 152.796 62.943C152.08 63.4642 151.558 63.8552 151.298 64.5068C151.037 65.0932 151.298 65.7448 151.428 66.5918C151.558 67.1783 151.689 67.895 152.014 68.6769C152.21 68.8072 151.949 68.9375 151.819 68.7421Z" fill="#E07D6A"/>
<path d="M159.638 87.3773C159.247 86.5954 158.465 86.2045 158.074 85.6832C157.553 84.9665 157.227 84.5104 156.576 84.2497C155.989 83.9891 155.403 83.9239 154.49 84.1194C153.904 84.2497 153.122 84.1846 152.275 84.5104C152.145 84.5755 151.949 84.1846 152.08 84.1194C152.861 83.7285 153.774 83.8588 154.295 83.4678C155.012 82.9466 155.468 82.2298 155.663 81.6434C155.924 81.057 155.663 80.3402 155.468 79.428C155.338 78.8416 155.468 78.0597 155.142 77.2126C155.077 77.0823 155.403 76.8868 155.468 77.0172C155.859 77.7991 155.859 78.6461 156.25 79.1674C156.771 79.8841 157.357 80.5357 157.944 80.7963C158.53 81.057 159.377 81.057 160.29 80.9267C160.876 80.7963 161.593 80.4706 162.44 80.2099C162.57 80.1448 162.635 80.1448 162.44 80.2751C161.658 80.666 161.137 81.1873 160.615 81.5782C159.899 82.0995 159.377 82.4905 159.117 83.142C158.856 83.7285 159.117 84.3801 159.247 85.2271C159.377 85.8135 159.508 86.5303 159.833 87.3122C160.029 87.4425 159.703 87.5077 159.638 87.3773Z" fill="#E07D6A"/>
</svg>
